# xmcd CD database file
#
# Track frame offsets:
#	150
#	17987
#	32315
#	45130
#	64782
#	80112
#	95250
#	114457
#	127185
#	146067
#	162790
#	176715
#	194625
#	212522
#	230830
#	247660
#	265350
#	282437
#	297867
#	312687
#	328182
#
# Disc length: 4656 seconds
#
# Revision: 4
# Processed by: cddbd v1.5.2PL0 Copyright (c) Steve Scherf et al.
# Submitted via: CDex 1.51
#
DISCID=3c122e15
DTITLE=Freddie King - King Of The Blues (Disc-1)
DYEAR=1900
DGENRE=Blues
TTITLE0=Same Old Blues
TTITLE1=Dust My Broom
TTITLE2=Worried Life Blues
TTITLE3=Five Long Years
TTITLE4=Key To The Highway
TTITLE5=Going Down
TTITLE6=Living On The Highway
TTITLE7=Walking By Myself
TTITLE8=Tore Down
TTITLE9=Palace Of The King
TTITLE10=Lowdown In Lodi
TTITLE11=Reconsider Baby
TTITLE12=Big Legged Woman
TTITLE13=Me And My Guitar
TTITLE14=I'd Rather Be Blind
TTITLE15=Can't Trust Your Neighbor
TTITLE16=You Was Wrong
TTITLE17=How Many More Years
TTITLE18=Ain't No Sunshine
TTITLE19=The Sky Is Crying
TTITLE20=That's All Right
EXTD=
EXTT0=
EXTT1=
EXTT2=
EXTT3=
EXTT4=
EXTT5=
EXTT6=
EXTT7=
EXTT8=
EXTT9=
EXTT10=
EXTT11=
EXTT12=
EXTT13=
EXTT14=
EXTT15=
EXTT16=
EXTT17=
EXTT18=
EXTT19=
EXTT20=
PLAYORDER=
